HIERARCHY
ROOT Hips
{
	OFFSET 0.000000 0.000000 0.000000
	CHANNELS 6 Xposition Yposition Zposition Zrotation Yrotation Xrotation 
	JOINT LowerBack
	{
		OFFSET 0.000000 0.000000 0.000000
		CHANNELS 3 Zrotation Yrotation Xrotation
		JOINT Spine
		{
			OFFSET 0.028270 2.035590 -0.193380
			CHANNELS 3 Zrotation Yrotation Xrotation
			JOINT Spine1
			{
				OFFSET 0.056720 2.048850 -0.042750
				CHANNELS 3 Zrotation Yrotation Xrotation
				JOINT Neck
				{
					OFFSET 0.000000 0.000000 0.000000
					CHANNELS 3 Zrotation Yrotation Xrotation
					JOINT Neck1
					{
						OFFSET -0.054170 1.746240 0.172020
						CHANNELS 3 Zrotation Yrotation Xrotation
						JOINT Head
						{
							OFFSET 0.104070 1.761360 -0.123970
							CHANNELS 3 Zrotation Yrotation Xrotation
							End Site
							{
								OFFSET 0.000000 0.000000 0.000000
							}
						}
					}
				}
				JOINT LeftShoulder
				{
					OFFSET 0.000000 0.000000 0.000000
					CHANNELS 3 Zrotation Yrotation Xrotation
					JOINT LeftArm
					{
						OFFSET 3.362410 1.200890 -0.311210
						CHANNELS 3 Zrotation Yrotation Xrotation
						JOINT LeftForeArm
						{
							OFFSET 4.983000 -0.000000 -0.000000
							CHANNELS 3 Zrotation Yrotation Xrotation
							JOINT LeftHand
							{
								OFFSET 3.483560 -0.000000 -0.000000
								CHANNELS 3 Zrotation Yrotation Xrotation
								JOINT LeftFingerBase
								{
									OFFSET 0.000000 0.000000 0.000000
									CHANNELS 3 Zrotation Yrotation Xrotation
									JOINT LeftHandIndex1
									{
										OFFSET 0.715260 -0.000000 -0.000000
										CHANNELS 3 Zrotation Yrotation Xrotation
										End Site
										{
											OFFSET 0.000000 0.000000 0.000000
										}
									}
								}
								JOINT LThumb
								{
									OFFSET 0.000000 0.000000 0.000000
									CHANNELS 3 Zrotation Yrotation Xrotation
									End Site
									{
										OFFSET 0.000000 0.000000 0.000000
									}
								}
							}
						}
					}
				}
				JOINT RightShoulder
				{
					OFFSET 0.000000 0.000000 0.000000
					CHANNELS 3 Zrotation Yrotation Xrotation
					JOINT RightArm
					{
						OFFSET -3.136600 1.374050 -0.404650
						CHANNELS 3 Zrotation Yrotation Xrotation
						JOINT RightForeArm
						{
							OFFSET -5.241900 -0.000000 -0.000000
							CHANNELS 3 Zrotation Yrotation Xrotation
							JOINT RightHand
							{
								OFFSET -3.444170 -0.000000 -0.000000
								CHANNELS 3 Zrotation Yrotation Xrotation
								JOINT RightFingerBase
								{
									OFFSET 0.000000 0.000000 0.000000
									CHANNELS 3 Zrotation Yrotation Xrotation
									JOINT RightHandIndex1
									{
										OFFSET -0.622530 -0.000000 -0.000000
										CHANNELS 3 Zrotation Yrotation Xrotation
										End Site
										{
											OFFSET 0.000000 0.000000 0.000000
										}
									}
								}
								JOINT RThumb
								{
									OFFSET 0.000000 0.000000 0.000000
									CHANNELS 3 Zrotation Yrotation Xrotation
									End Site
									{
										OFFSET 0.000000 0.000000 0.000000
									}
								}
							}
						}
					}
				}
			}
		}
	}
}
}
MOTION
Frames: 11
Frame Time: 0.008333
-9.950156 16.717518 -2.805066 10.666511 84.165737 20.924332 -9.306070 2.088815 -3.981235 -2.369649 2.586847 -3.895344 -4.198702 2.428830 0.016882 6.377523 -3.580908 -8.632264 -1.480021 -0.104867 -0.260616 0.000000 0.000000 0.000000 -7.403163 20.851062 2.570188 -61.860846 30.650621 -11.607667 -4.956571 -4.458443 -0.011764 3.007842 6.211603 0.172486 -0.139115 -0.078818 -0.000000 0.000000 0.000000 0.000000 0.000000 0.000000 0.000000 3.135660 3.587395 -0.029173 33.839530 42.545443 14.545471 0.273187 74.221150 -0.013055 -0.700187 6.903545 -0.041147 -0.062041 -0.485910 0.000000 0.000000 0.000000 0.000000 0.000000 0.000000 0.000000 
-9.786471 16.661409 -2.809262 13.113057 83.832067 23.071305 -9.617450 1.966245 -3.739069 -2.443331 2.488102 -3.862981 -4.287650 2.337138 -0.025243 6.611502 -3.357912 -8.622614 -1.562670 -0.110902 -0.266720 0.000000 0.000000 0.000000 -7.412493 20.583530 2.665893 -62.537523 29.658399 -11.251848 -4.928015 -4.664476 -0.012024 2.631154 6.305197 0.153685 -0.133428 -0.075762 -0.000000 0.000000 0.000000 0.000000 0.000000 0.000000 0.000000 3.632805 3.892533 0.043546 35.422623 42.066674 15.124496 0.310555 73.464119 -0.011739 -0.659354 6.778271 -0.038074 -0.056810 -0.479991 0.000000 0.000000 0.000000 0.000000 0.000000 0.000000 0.000000 
-9.628501 16.601681 -2.813797 15.379580 83.492426 25.019099 -9.911017 1.837291 -3.440595 -2.512810 2.382158 -3.824746 -4.380864 2.238802 -0.093547 6.832396 -3.112639 -8.601363 -1.655830 -0.117836 -0.270917 0.000000 0.000000 0.000000 -7.480256 20.231810 2.765094 -63.173849 28.613086 -10.767975 -4.890829 -4.915989 -0.011907 2.311859 6.317742 0.135689 -0.127217 -0.072561 -0.000000 0.000000 0.000000 0.000000 0.000000 0.000000 0.000000 4.154054 4.228414 0.123136 37.031113 41.542293 15.634574 0.349654 72.663416 -0.010740 -0.659496 6.681915 -0.037795 -0.050876 -0.474651 0.000000 0.000000 0.000000 0.000000 0.000000 0.000000 0.000000 
-9.475875 16.539173 -2.819092 17.516438 83.154820 26.816783 -10.185330 1.701416 -3.087390 -2.578266 2.268229 -3.780857 -4.480094 2.132890 -0.187344 7.044996 -2.845669 -8.564156 -1.760888 -0.125836 -0.272045 0.000000 0.000000 0.000000 -7.608105 19.795244 2.865571 -63.749446 27.509541 -10.115073 -4.844170 -5.200581 -0.011434 2.066948 6.257409 0.120500 -0.120396 -0.069246 -0.000000 0.000000 0.000000 0.000000 0.000000 0.000000 0.000000 4.712052 4.591140 0.209720 38.649343 40.965183 16.071852 0.390517 71.825981 -0.010058 -0.698574 6.631910 -0.040216 -0.044404 -0.470058 -0.000000 0.000000 0.000000 0.000000 0.000000 0.000000 0.000000 
-9.328110 16.474890 -2.825615 19.534055 82.823787 28.474801 -10.434756 1.560058 -2.684237 -2.639074 2.147194 -3.732314 -4.587067 2.020023 -0.306127 7.252843 -2.556283 -8.505670 -1.878808 -0.135052 -0.268572 0.000000 0.000000 0.000000 -7.796473 19.271375 2.965202 -64.247405 26.347750 -9.261846 -4.787892 -5.507176 -0.010654 1.909476 6.138316 0.109218 -0.112912 -0.065800 -0.000000 0.000000 0.000000 0.000000 0.000000 0.000000 0.000000 5.315507 4.978069 0.303043 40.267159 40.322857 16.432244 0.433262 70.957183 -0.009655 -0.769719 6.641607 -0.045038 -0.037622 -0.466263 -0.000000 0.000000 0.000000 0.000000 0.000000 0.000000 0.000000 
-9.184522 16.409991 -2.833816 21.428963 82.501373 29.992559 -10.653180 1.415795 -2.239640 -2.694512 2.021063 -3.680595 -4.703129 1.901875 -0.447919 7.459076 -2.245948 -8.421668 -2.009879 -0.145562 -0.259193 0.000000 0.000000 0.000000 -8.039973 18.661085 3.062363 -64.655565 25.123921 -8.188194 -4.722289 -5.822101 -0.009633 1.848863 5.977849 0.102640 -0.104755 -0.062140 -0.000000 0.000000 0.000000 0.000000 0.000000 0.000000 0.000000 5.970128 5.383894 0.402015 41.877850 39.602428 16.711681 0.478080 70.059034 -0.009483 -0.866054 6.720539 -0.051962 -0.030749 -0.463233 -0.000000 0.000000 0.000000 0.000000 0.000000 0.000000 0.000000 
-9.044445 16.345668 -2.844096 23.184502 82.188368 31.358275 -10.833698 1.272400 -1.764813 -2.743590 1.893039 -3.628332 -4.829123 1.781192 -0.612893 7.664095 -1.912481 -8.306114 -2.153477 -0.157393 -0.241990 0.000000 0.000000 0.000000 -8.330904 17.957031 3.156313 -64.968282 23.847248 -6.894875 -4.648697 -6.139195 -0.008450 1.888453 5.796135 0.101167 -0.095989 -0.058136 -0.000000 0.000000 0.000000 0.000000 0.000000 0.000000 0.000000 6.673082 5.806583 0.504933 43.484380 38.779741 16.899896 0.525317 69.131452 -0.009467 -0.976852 6.873137 -0.060490 -0.024054 -0.460838 -0.000000 0.000000 0.000000 0.000000 0.000000 0.000000 0.000000 
-8.907097 16.283126 -2.856522 24.808967 81.885331 32.588085 -10.976446 1.131774 -1.271972 -2.786750 1.765002 -3.574466 -4.964595 1.659717 -0.785917 7.874740 -1.580140 -8.169084 -2.308190 -0.170264 -0.219674 0.000000 0.000000 0.000000 -8.640262 17.203170 3.245837 -65.183620 22.457006 -5.359093 -4.566335 -6.416001 -0.007174 2.037127 5.609339 0.104699 -0.086637 -0.053520 -0.000000 0.000000 0.000000 0.000000 0.000000 0.000000 0.000000 7.433443 6.216095 0.607708 45.070297 37.878544 17.002764 0.574660 68.157725 -0.009658 -1.112080 7.102166 -0.071722 -0.017509 -0.458913 -0.000000 0.000000 0.000000 0.000000 0.000000 0.000000 0.000000 
-8.771861 16.223609 -2.871231 26.271997 81.591811 33.660198 -11.073773 0.999536 -0.776051 -2.822526 1.642104 -3.523815 -5.108953 1.541984 -0.972879 8.084516 -1.238276 -8.001412 -2.471302 -0.184080 -0.189238 0.000000 0.000000 0.000000 -8.961298 16.373896 3.331335 -65.307358 20.991506 -3.629496 -4.478687 -6.669961 -0.005908 2.285548 5.436818 0.112934 -0.076943 -0.048135 -0.000000 0.000000 0.000000 0.000000 0.000000 0.000000 0.000000 8.227721 6.618788 0.707439 46.661521 36.851936 16.994003 0.626615 67.133977 -0.009945 -1.255967 7.401423 -0.084761 -0.011437 -0.457161 -0.000000 0.000000 0.000000 0.000000 0.000000 0.000000 0.000000 
-8.638097 16.168199 -2.888055 27.567276 81.308305 34.579395 -11.125123 0.878168 -0.291004 -2.850886 1.526925 -3.475776 -5.260190 1.430454 -1.159692 8.295488 -0.911497 -7.815829 -2.639576 -0.198378 -0.153984 0.000000 0.000000 0.000000 -9.266805 15.511594 3.411184 -65.346231 19.398858 -1.719054 -4.386212 -6.874431 -0.004727 2.634039 5.288922 0.125573 -0.067088 -0.041724 -0.000000 0.000000 0.000000 0.000000 0.000000 0.000000 0.000000 9.050459 6.984275 0.799021 48.255087 35.722049 16.871802 0.680774 66.034616 -0.010392 -1.422195 7.765912 -0.101106 -0.005723 -0.455279 -0.000000 0.000000 0.000000 0.000000 0.000000 0.000000 0.000000 
-8.505375 16.117865 -2.906623 28.698385 81.037887 35.358534 -11.132437 0.771927 0.169196 -2.871404 1.424154 -3.431688 -5.414791 1.329726 -1.340919 8.501399 -0.600618 -7.615724 -2.810242 -0.212868 -0.114654 0.000000 0.000000 0.000000 -9.555696 14.650374 3.477269 -65.288936 17.573193 0.033391 -4.300132 -6.755965 -0.003388 3.045609 4.841721 0.132013 -0.057641 -0.034912 -0.000000 0.000000 0.000000 0.000000 0.000000 0.000000 0.000000 9.877097 7.304015 0.875660 49.867292 34.467343 16.605367 0.736253 64.845812 -0.011011 -1.611435 8.185085 -0.120858 -0.000542 -0.452917 -0.000000 0.000000 0.000000 0.000000 0.000000 0.000000 0.000000 
